<svg version="1.0" xmlns="http://www.w3.org/2000/svg" width="50%" viewBox="0 0 1738.000000 572.000000" preserveAspectRatio="xMidYMid meet">
  <g transform="translate(0.000000,572.000000) scale(0.100000,-0.100000)" fill="Blue" stroke="none">
    <path d="M4230 5479 c-118 -60 -314 -161 -435 -223 -376 -194 -542 -280 -760
    -391 -115 -59 -282 -145 -370 -190 -227 -117 -456 -235 -710 -365 -121 -62
    -283 -145 -360 -185 -77 -40 -221 -114 -320 -165 -99 -51 -252 -130 -340 -175
    -88 -45 -263 -135 -390 -201 -126 -65 -275 -141 -330 -170 l-100 -52 -3 -268
    c-1 -148 0 -274 2 -281 4 -9 20 -5 58 16 29 15 175 90 323 166 149 76 324 166
    390 200 66 34 219 113 340 175 333 170 573 294 753 386 89 46 235 122 325 168
    89 46 270 139 402 206 132 67 290 148 350 180 61 32 223 115 360 185 138 70
    291 149 340 175 245 129 625 320 637 320 7 0 94 -66 193 -146 99 -81 212 -172
    250 -203 39 -31 72 -58 75 -61 3 -3 39 -33 80 -66 41 -33 282 -229 535 -435
    253 -206 521 -424 595 -484 138 -111 241 -196 250 -205 20 -22 213 -170 220
    -170 11 0 14 597 4 625 -4 9 -93 86 -198 171 -105 86 -200 163 -211 172 -11
    10 -42 35 -70 57 -27 22 -52 42 -55 45 -3 3 -27 23 -54 45 -27 22 -104 84
    -170 138 -67 54 -152 124 -191 155 -38 31 -155 126 -260 212 -235 193 -400
    327 -651 529 -71 58 -131 107 -134 110 -3 3 -27 24 -55 46 -27 22 -56 45 -63
    52 -7 7 -19 13 -25 13 -7 0 -109 -50 -227 -111z"></path>
    <path d="M3720 3575 l0 -235 240 0 240 0 0 235 0 235 -240 0 -240 0 0 -235z"></path>
    <path d="M4440 3575 l0 -235 240 0 240 0 0 235 0 235 -240 0 -240 0 0 -235z"></path>
    <path d="M14953 3764 c-32 -16 -63 -66 -63 -102 0 -10 10 -34 23 -53 45 -68
    148 -72 201 -8 81 96 -42 221 -161 163z"></path>
    <path d="M10167 3744 c-4 -4 -7 -265 -7 -581 l0 -573 130 0 130 0 -2 578 -3
    577 -121 3 c-66 1 -123 -1 -127 -4z"></path>
    <path d="M11520 3170 l0 -580 124 0 124 0 4 243 c3 220 5 245 23 276 30 51 67
    74 128 79 71 6 112 -15 138 -71 17 -38 19 -68 19 -284 l0 -243 130 0 130 0 0
    253 c0 138 -5 281 -11 317 -26 160 -121 243 -284 244 -120 0 -189 -34 -247
    -123 l-28 -45 0 257 0 257 -125 0 -125 0 0 -580z"></path>
    <path d="M7600 3698 c0 -7 58 -258 128 -558 l128 -545 143 0 144 0 93 383 c51
    211 94 386 97 388 2 2 49 -171 103 -386 l99 -390 137 0 137 0 10 38 c22 83
    251 1060 251 1070 0 9 -40 12 -135 12 -74 0 -135 -3 -135 -7 1 -22 -134 -769
    -140 -776 -3 -4 -47 165 -97 375 l-90 383 -137 3 c-75 1 -136 -1 -136 -4 0
    -19 -174 -750 -180 -757 -3 -4 -38 170 -76 388 l-69 395 -137 0 c-104 0 -138
    -3 -138 -12z"></path>
    <path d="M12950 3308 c0 -425 3 -458 48 -543 28 -52 47 -74 105 -118 60 -46
    138 -68 240 -68 214 1 353 116 386 321 6 37 11 225 11 438 l0 372 -74 0 -74 0
    -4 -397 c-3 -390 -4 -399 -26 -449 -29 -64 -74 -109 -131 -129 -90 -31 -180
    -14 -246 46 -77 71 -79 79 -83 532 l-3 397 -75 0 -74 0 0 -402z"></path>
    <path d="M9487 3399 c-112 -16 -208 -73 -273 -162 -53 -72 -76 -147 -75 -252
    0 -121 38 -211 119 -287 89 -83 187 -119 327 -119 45 0 104 5 131 12 153 37
    274 156 298 292 l7 37 -128 0 -128 -1 -20 -42 c-28 -59 -80 -87 -165 -87 -90
    0 -136 27 -172 99 -16 30 -28 65 -28 78 l0 23 310 0 310 0 0 43 c0 100 -46
    204 -117 267 -62 55 -132 87 -218 100 -79 11 -97 11 -178 -1z m184 -195 c28
    -14 69 -59 69 -75 0 -5 -74 -9 -165 -9 -91 0 -165 4 -165 9 0 14 40 60 63 73
    56 30 144 31 198 2z"></path>
    <path d="M10885 3403 c-96 -13 -191 -63 -229 -121 -71 -107 -44 -253 56 -300
    50 -23 116 -37 248 -52 111 -12 129 -17 153 -38 36 -32 12 -94 -45 -116 -80
    -33 -190 -10 -236 49 -12 15 -22 36 -22 46 0 18 -10 19 -130 19 l-130 0 0 -27
    c0 -42 42 -123 86 -166 80 -78 194 -117 344 -118 117 0 176 12 253 53 97 52
    147 130 147 230 0 63 -19 106 -63 145 -48 42 -112 60 -277 79 -150 17 -180 29
    -180 74 0 47 42 73 109 68 45 -4 59 -10 83 -36 l28 -32 126 0 126 0 -7 33
    c-33 150 -219 239 -440 210z"></path>
    <path d="M14311 3394 c-73 -20 -131 -65 -178 -140 -10 -16 -12 -6 -12 59 l-1
    77 -70 0 -70 0 0 -400 0 -400 69 0 69 0 5 248 c3 167 8 259 17 284 41 117 168
    180 292 144 30 -9 65 -27 80 -43 54 -57 58 -79 58 -368 l0 -265 75 0 75 0 0
    283 c0 308 -5 345 -55 417 -38 54 -96 92 -168 107 -78 16 -118 15 -186 -3z"></path>
    <path d="M15610 3399 c-127 -21 -248 -112 -303 -229 -39 -82 -49 -212 -23
    -300 58 -195 257 -316 479 -289 94 12 166 42 230 100 103 92 142 187 135 334
    -3 75 -9 101 -34 155 -59 123 -173 207 -314 229 -74 12 -93 12 -170 0z m206
    -144 c50 -21 115 -86 140 -140 32 -67 33 -179 3 -245 -47 -104 -137 -160 -259
    -160 -86 0 -145 22 -198 73 -54 52 -75 102 -80 193 -4 72 -1 89 20 135 26 57
    75 111 121 136 65 33 183 37 253 8z"></path>
    <path d="M16657 3400 c-80 -21 -134 -61 -189 -140 -17 -25 -17 -24 -17 53 l-1
    77 -70 0 -70 0 0 -400 0 -400 69 0 69 0 5 243 c2 136 10 258 16 278 32 104
    116 163 231 163 93 0 142 -30 186 -114 17 -31 19 -65 22 -302 l4 -268 74 0 74
    0 0 243 c0 282 -9 361 -49 432 -32 57 -94 109 -149 125 -55 15 -162 20 -205
    10z"></path>
    <path d="M14940 2990 l0 -400 75 0 75 0 0 400 0 400 -75 0 -75 0 0 -400z"></path>
    <path d="M4440 2840 l0 -240 238 2 237 3 3 238 2 237 -240 0 -240 0 0 -240z"></path>
    <path d="M122 2043 l3 -238 3213 -3 3212 -2 0 240 0 240 -3215 0 -3215 0 2
    -237z"></path>
    <path d="M8882 1792 c-113 -41 -159 -113 -169 -262 l-6 -90 -73 0 -74 0 0 -60
    0 -60 75 0 75 0 0 -340 0 -340 75 0 75 0 0 340 0 340 135 0 135 0 0 60 0 60
    -135 0 -135 0 0 66 c0 129 43 169 183 168 l87 0 0 57 c0 35 -5 61 -12 65 -7 5
    -51 10 -98 11 -64 3 -98 -1 -138 -15z"></path>
    <path d="M10125 1764 c-197 -39 -369 -191 -428 -379 -31 -99 -30 -261 1 -361
    55 -179 216 -328 407 -379 79 -21 260 -21 340 0 105 27 184 73 261 149 106
    106 154 222 154 371 l0 65 -79 0 -78 0 -5 -78 c-3 -60 -12 -94 -35 -145 -74
    -158 -204 -237 -389 -237 -184 0 -329 89 -400 244 -78 170 -45 371 80 499 176
    178 535 156 656 -42 l25 -40 83 -1 c82 0 83 0 77 23 -16 51 -69 129 -123 178
    -132 121 -345 173 -547 133z"></path>
    <path d="M12140 1618 c-1 -125 -31 -173 -116 -184 l-54 -6 0 -54 0 -54 74 0
    74 0 4 -252 c3 -236 5 -256 25 -298 36 -73 80 -113 147 -131 52 -14 181 -13
    241 2 l45 11 0 65 0 65 -27 -8 c-16 -5 -70 -9 -120 -9 -91 0 -93 0 -125 33
    l-33 32 -3 245 -3 245 141 0 140 0 0 60 0 60 -140 0 -140 0 0 115 0 115 -65 0
    -65 0 0 -52z"></path>
    <path d="M12856 1639 c-3 -17 -6 -49 -6 -71 0 -49 -22 -103 -49 -117 -11 -6
    -41 -14 -66 -17 l-45 -7 0 -53 0 -53 73 -3 72 -3 5 -260 c5 -259 5 -260 31
    -305 34 -57 53 -74 113 -101 57 -25 192 -28 266 -6 l45 13 3 63 3 64 -28 -8
    c-15 -4 -66 -9 -113 -12 -77 -4 -88 -2 -120 19 -52 35 -61 82 -58 328 l3 205
    143 3 142 3 0 59 0 59 -142 3 -143 3 -3 113 -3 112 -58 0 c-58 0 -59 -1 -65
    -31z"></path>
    <path d="M7950 1449 c-143 -24 -284 -139 -322 -263 -73 -238 46 -474 272 -540
    64 -19 200 -22 262 -5 225 60 353 283 293 513 -41 156 -169 269 -335 295 -74
    12 -93 12 -170 0z m210 -150 c97 -43 150 -123 158 -236 8 -119 -40 -214 -136
    -270 -36 -22 -61 -28 -128 -31 -71 -4 -89 -1 -135 20 -56 26 -111 74 -134 118
    -25 48 -35 135 -23 200 31 181 223 276 398 199z"></path>
    <path d="M11360 1449 c-143 -24 -284 -139 -322 -263 -73 -238 46 -474 272
    -540 64 -19 200 -22 262 -5 225 60 353 283 293 513 -41 156 -169 269 -335 295
    -74 12 -93 12 -170 0z m210 -150 c97 -43 150 -123 158 -236 8 -119 -40 -214
    -136 -270 -36 -22 -61 -28 -128 -31 -71 -4 -89 -1 -135 20 -56 26 -111 74
    -134 118 -25 48 -35 135 -23 200 31 181 223 276 398 199z"></path>
    <path d="M13701 1449 c-196 -33 -334 -222 -318 -438 9 -138 67 -244 171 -316
    68 -47 134 -66 226 -66 121 -1 216 45 281 134 l29 40 0 -81 0 -82 75 0 75 0 0
    400 0 400 -75 0 -75 0 0 -82 0 -81 -30 44 c-37 56 -109 104 -185 124 -65 16
    -93 17 -174 4z m235 -149 c93 -40 153 -126 161 -234 9 -112 -37 -209 -129
    -267 -44 -29 -61 -33 -133 -37 -73 -4 -90 -1 -137 20 -138 64 -202 218 -149
    358 26 68 63 114 115 145 80 47 185 53 272 15z"></path>
    <path d="M14748 1450 c-117 -20 -237 -111 -284 -215 -75 -164 -43 -358 78
    -478 62 -61 122 -93 204 -108 132 -25 264 18 350 114 l46 52 -5 -136 c-5 -159
    -19 -202 -90 -266 -54 -50 -123 -73 -217 -73 -164 0 -277 82 -303 220 l-12 60
    -73 0 -73 0 7 -52 c15 -120 74 -216 173 -282 74 -49 138 -68 256 -73 154 -7
    261 26 352 110 55 50 84 95 106 161 15 43 17 106 17 503 l0 453 -70 0 -70 0 0
    -75 c0 -43 -4 -75 -10 -75 -5 0 -10 4 -10 10 0 18 -63 81 -107 107 -78 45
    -165 60 -265 43z m238 -150 c47 -20 106 -76 130 -123 22 -41 30 -159 15 -214
    -37 -137 -205 -222 -354 -179 -75 22 -135 70 -169 135 -23 44 -28 66 -28 127
    0 113 40 190 124 239 81 47 195 53 282 15z"></path>
    <path d="M15770 1449 c-79 -14 -148 -49 -207 -106 -164 -160 -165 -432 -2
    -595 226 -226 665 -116 706 177 l6 45 -75 0 -75 0 -7 -38 c-23 -145 -231 -224
    -384 -145 -84 42 -134 124 -144 233 l-3 35 339 3 338 2 -7 57 c-11 89 -41 157
    -96 218 -59 64 -128 100 -219 115 -74 11 -94 11 -170 -1z m186 -124 c55 -16
    110 -63 130 -112 8 -18 14 -35 14 -38 0 -3 -110 -5 -245 -5 -273 0 -266 -2
    -216 66 65 91 191 127 317 89z"></path>
    <path d="M16681 1449 c-149 -29 -241 -148 -212 -273 23 -97 93 -137 292 -166
    75 -10 147 -24 160 -29 87 -33 89 -148 3 -202 -44 -27 -157 -37 -222 -20 -78
    22 -152 109 -152 180 l0 31 -76 0 -76 0 4 -53 c12 -147 142 -264 316 -285 187
    -22 348 43 397 162 37 90 26 173 -32 237 -43 48 -113 71 -280 93 -118 16 -165
    33 -183 65 -26 50 1 111 60 135 88 35 202 9 238 -55 16 -28 20 -29 91 -29 l73
    0 -7 28 c-11 43 -34 88 -58 110 -72 67 -210 96 -336 71z"></path>
    <path d="M120 965 l0 -235 3215 0 3215 0 0 235 0 235 -3215 0 -3215 0 0 -235z"></path>
  </g>
</svg>